<svg id="SvgjsSvg1078" width="288" height="288" xmlns="http://www.w3.org/2000/svg" version="1.1" xmlns:xlink="http://www.w3.org/1999/xlink" xmlns:svgjs="http://svgjs.com/svgjs"><g id="SvgjsG1088" transform="matrix(0.4,0,0,0.4,86.4,86.4)" fill="#8333ab"><circle id="SvgjsCircle1089" r="144" cx="144" cy="144"></circle><rect id="SvgjsRect1090" width="155" height="155" x="133" y="133" rx="11" ry="11"></rect></g><defs id="SvgjsDefs1079"></defs><g id="SvgjsG1080" transform="matrix(0.29,0,0,0.29,102.24000000000001,102.24039001464844)"><svg xmlns="http://www.w3.org/2000/svg" viewBox="0 0 32 32" width="288" height="288"><g fill-rule="evenodd" transform="translate(0 -1020.362)" fill="#8333ab" class="color000 svgShape"><circle cx="16" cy="1036.362" r="16" fill="#fcb045" class="colorffa40b svgShape"></circle><path fill="#fd1d1d" style="line-height:normal;text-indent:0;text-align:start;text-decoration-line:none;text-decoration-style:solid;text-decoration-color:#000;text-transform:none;block-progression:tb;isolation:auto;mix-blend-mode:normal" d="M18.322 31.814c.133-.014.265-.03.397-.046a15.999 15.999 0 0 0 3.078-.856 16 16 0 0 0 1.46-.652 16 16 0 0 0 2.688-1.727 16 16 0 0 0 4.096-4.863c.128-.248.249-.498.363-.752l-6.533-6.533c.089-.097.136.239.131.107l6.393 6.455c.025-.05.217-.457.242-.508L16.346 8.15a.501.501 0 0 0-.711 0l-7.492 7.544c-.476.473.236 1.185.709.71l1.156 1.156V23.5a.5.5 0 0 0 .5.5z" color="#000" font-family="sans-serif" font-weight="400" transform="translate(0 1020.362)" class="colorff7712 svgShape"></path><path fill="#ffffff" d="M15.987 1028.362a.501.501 0 0 0-.352.149l-7.492 7.545a.501.501 0 1 0 .711.707l1.154-1.162v8.261a.5.5 0 0 0 .5.5h11a.5.5 0 0 0 .5-.5v-8.228l1.122 1.129a.501.501 0 0 0 .355.146.501.501 0 0 0 .033-1.002h.176l-7.348-7.396a.501.501 0 0 0-.359-.149zm.004 1.213 5.017 5.053v8.734h-3v-4.5a.5.5 0 0 0-.5-.5h-3a.5.5 0 0 0-.5.5v4.5h-3v-8.77l4.983-5.017zm.017 2.787c-1.098 0-2 .902-2 2 0 1.099.902 2 2 2 1.1 0 2-.901 2-2 0-1.098-.9-2-2-2zm0 1c.559 0 1 .442 1 1s-.441 1-1 1c-.558 0-1-.442-1-1s.442-1 1-1zm-1 6h2v4h-2v-4z" color="#000" font-family="sans-serif" font-weight="400" overflow="visible" style="line-height:normal;text-indent:0;text-align:start;text-decoration-line:none;text-decoration-style:solid;text-decoration-color:#000;text-transform:none;block-progression:tb;isolation:auto;mix-blend-mode:normal" class="colorfff svgShape"></path></g></svg></g></svg>